<?xml version="1.0" encoding="us-ascii" standalone="no"?><svg xmlns="http://www.w3.org/2000/svg" xmlns:xlink="http://www.w3.org/1999/xlink" contentStyleType="text/css" height="777px" preserveAspectRatio="none" style="width:781px;height:777px;background:#FFFFFF;" version="1.1" viewBox="0 0 781 777" width="781px" zoomAndPan="magnify"><defs/><g><rect fill="none" height="307.1328" style="stroke:#000000;stroke-width:1.5;" width="754" x="10" y="372.3594"/><line style="stroke:#181818;stroke-width:0.5;stroke-dasharray:5.0,5.0;" x1="37" x2="37" y1="81.2969" y2="696.4922"/><line style="stroke:#181818;stroke-width:0.5;stroke-dasharray:5.0,5.0;" x1="308" x2="308" y1="81.2969" y2="696.4922"/><line style="stroke:#181818;stroke-width:0.5;stroke-dasharray:5.0,5.0;" x1="524" x2="524" y1="81.2969" y2="696.4922"/><line style="stroke:#181818;stroke-width:0.5;stroke-dasharray:5.0,5.0;" x1="680" x2="680" y1="81.2969" y2="696.4922"/><text fill="#000000" font-family="sans-serif" font-size="14" lengthAdjust="spacing" textLength="28" x="20" y="77.9951">&#29992;&#25143;</text><ellipse cx="37" cy="13.5" fill="#E2E2F0" rx="8" ry="8" style="stroke:#181818;stroke-width:0.5;"/><path d="M37,21.5 L37,48.5 M24,29.5 L50,29.5 M37,48.5 L24,63.5 M37,48.5 L50,63.5 " fill="none" style="stroke:#181818;stroke-width:0.5;"/><text fill="#000000" font-family="sans-serif" font-size="14" lengthAdjust="spacing" textLength="28" x="20" y="708.4873">&#29992;&#25143;</text><ellipse cx="37" cy="720.2891" fill="#E2E2F0" rx="8" ry="8" style="stroke:#181818;stroke-width:0.5;"/><path d="M37,728.2891 L37,755.2891 M24,736.2891 L50,736.2891 M37,755.2891 L24,770.2891 M37,755.2891 L50,770.2891 " fill="none" style="stroke:#181818;stroke-width:0.5;"/><rect fill="#E2E2F0" height="46.5938" rx="2.5" ry="2.5" style="stroke:#181818;stroke-width:0.5;" width="194" x="211" y="33.7031"/><text fill="#000000" font-family="sans-serif" font-size="14" lengthAdjust="spacing" textLength="77" x="269.5" y="53.6982">MCP &#23458;&#25143;&#31471;</text><text fill="#000000" font-family="sans-serif" font-size="14" lengthAdjust="spacing" textLength="180" x="218" y="69.9951">(e.g. Cursor/CherryStudio)</text><rect fill="#E2E2F0" height="46.5938" rx="2.5" ry="2.5" style="stroke:#181818;stroke-width:0.5;" width="194" x="211" y="695.4922"/><text fill="#000000" font-family="sans-serif" font-size="14" lengthAdjust="spacing" textLength="77" x="269.5" y="715.4873">MCP &#23458;&#25143;&#31471;</text><text fill="#000000" font-family="sans-serif" font-size="14" lengthAdjust="spacing" textLength="180" x="218" y="731.7842">(e.g. Cursor/CherryStudio)</text><rect fill="#E2E2F0" height="30.2969" rx="2.5" ry="2.5" style="stroke:#181818;stroke-width:0.5;" width="40" x="504" y="50"/><text fill="#000000" font-family="sans-serif" font-size="14" lengthAdjust="spacing" textLength="26" x="511" y="69.9951">LLM</text><rect fill="#E2E2F0" height="30.2969" rx="2.5" ry="2.5" style="stroke:#181818;stroke-width:0.5;" width="40" x="504" y="695.4922"/><text fill="#000000" font-family="sans-serif" font-size="14" lengthAdjust="spacing" textLength="26" x="511" y="715.4873">LLM</text><rect fill="#E2E2F0" height="46.5938" rx="2.5" ry="2.5" style="stroke:#181818;stroke-width:0.5;" width="148" x="606" y="33.7031"/><text fill="#000000" font-family="sans-serif" font-size="14" lengthAdjust="spacing" textLength="95" x="632.5" y="53.6982">&#26412;&#22320; MCP &#26381;&#21153;</text><text fill="#000000" font-family="sans-serif" font-size="14" lengthAdjust="spacing" textLength="134" x="613" y="69.9951">(via uvx &#25110; npx &#21551;&#21160;)</text><rect fill="#E2E2F0" height="46.5938" rx="2.5" ry="2.5" style="stroke:#181818;stroke-width:0.5;" width="148" x="606" y="695.4922"/><text fill="#000000" font-family="sans-serif" font-size="14" lengthAdjust="spacing" textLength="95" x="632.5" y="715.4873">&#26412;&#22320; MCP &#26381;&#21153;</text><text fill="#000000" font-family="sans-serif" font-size="14" lengthAdjust="spacing" textLength="134" x="613" y="731.7842">(via uvx &#25110; npx &#21551;&#21160;)</text><rect fill="#EEEEEE" height="3" style="stroke:#EEEEEE;stroke-width:1.0;" width="774" x="0" y="111.8633"/><line style="stroke:#000000;stroke-width:1.0;" x1="0" x2="774" y1="111.8633" y2="111.8633"/><line style="stroke:#000000;stroke-width:1.0;" x1="0" x2="774" y1="114.8633" y2="114.8633"/><rect fill="#EEEEEE" height="23.1328" style="stroke:#000000;stroke-width:2.0;" width="89" x="342.5" y="101.2969"/><text fill="#000000" font-family="sans-serif" font-size="13" font-weight="bold" lengthAdjust="spacing" textLength="70" x="348.5" y="117.3638">&#21021;&#22987;&#21270;&#38454;&#27573;</text><polygon fill="#181818" points="296,151.5625,306,155.5625,296,159.5625,300,155.5625" style="stroke:#181818;stroke-width:1.0;"/><line style="stroke:#181818;stroke-width:1.0;" x1="37" x2="302" y1="155.5625" y2="155.5625"/><text fill="#000000" font-family="sans-serif" font-size="13" lengthAdjust="spacing" textLength="114" x="44" y="150.4966">&#28155;&#21152; MCP &#26381;&#21153;&#22320;&#22336;</text><polygon fill="#181818" points="668,180.6953,678,184.6953,668,188.6953,672,184.6953" style="stroke:#181818;stroke-width:1.0;"/><line style="stroke:#181818;stroke-width:1.0;" x1="308" x2="674" y1="184.6953" y2="184.6953"/><text fill="#000000" font-family="sans-serif" font-size="13" lengthAdjust="spacing" textLength="78" x="315" y="179.6294">&#35831;&#27714;&#24037;&#20855;&#21015;&#34920;</text><polygon fill="#181818" points="319,209.8281,309,213.8281,319,217.8281,315,213.8281" style="stroke:#181818;stroke-width:1.0;"/><line style="stroke:#181818;stroke-width:1.0;stroke-dasharray:2.0,2.0;" x1="313" x2="679" y1="213.8281" y2="213.8281"/><text fill="#000000" font-family="sans-serif" font-size="13" lengthAdjust="spacing" textLength="104" x="325" y="208.7622">&#36820;&#22238;&#24037;&#20855;&#21015;&#34920;&#25968;&#25454;</text><rect fill="#EEEEEE" height="3" style="stroke:#EEEEEE;stroke-width:1.0;" width="774" x="0" y="242.3945"/><line style="stroke:#000000;stroke-width:1.0;" x1="0" x2="774" y1="242.3945" y2="242.3945"/><line style="stroke:#000000;stroke-width:1.0;" x1="0" x2="774" y1="245.3945" y2="245.3945"/><rect fill="#EEEEEE" height="23.1328" style="stroke:#000000;stroke-width:2.0;" width="117" x="328.5" y="231.8281"/><text fill="#000000" font-family="sans-serif" font-size="13" font-weight="bold" lengthAdjust="spacing" textLength="98" x="334.5" y="247.895">&#23545;&#35805;&#19982;&#24037;&#20855;&#35843;&#29992;</text><polygon fill="#181818" points="296,282.0938,306,286.0938,296,290.0938,300,286.0938" style="stroke:#181818;stroke-width:1.0;"/><line style="stroke:#181818;stroke-width:1.0;" x1="37" x2="302" y1="286.0938" y2="286.0938"/><text fill="#000000" font-family="sans-serif" font-size="13" lengthAdjust="spacing" textLength="156" x="44" y="281.0278">&#25552;&#38382;&#65288;&#22914;&#65306;&#21271;&#20140;&#26126;&#22825;&#22825;&#27668;&#65289;</text><polygon fill="#181818" points="512,311.2266,522,315.2266,512,319.2266,516,315.2266" style="stroke:#181818;stroke-width:1.0;"/><line style="stroke:#181818;stroke-width:1.0;" x1="308" x2="518" y1="315.2266" y2="315.2266"/><text fill="#000000" font-family="sans-serif" font-size="13" lengthAdjust="spacing" textLength="149" x="315" y="310.1606">&#20256;&#36865;&#24037;&#20855;&#21015;&#34920; + &#29992;&#25143;&#38382;&#39064;</text><line style="stroke:#181818;stroke-width:1.0;" x1="524" x2="566" y1="344.3594" y2="344.3594"/><line style="stroke:#181818;stroke-width:1.0;" x1="566" x2="566" y1="344.3594" y2="357.3594"/><line style="stroke:#181818;stroke-width:1.0;" x1="525" x2="566" y1="357.3594" y2="357.3594"/><polygon fill="#181818" points="535,353.3594,525,357.3594,535,361.3594,531,357.3594" style="stroke:#181818;stroke-width:1.0;"/><text fill="#000000" font-family="sans-serif" font-size="13" lengthAdjust="spacing" textLength="117" x="531" y="339.2935">&#21028;&#26029;&#26159;&#21542;&#38656;&#35843;&#29992;&#24037;&#20855;</text><path d="M10,372.3594 L74,372.3594 L74,379.4922 L64,389.4922 L10,389.4922 L10,372.3594 " fill="#EEEEEE" style="stroke:#000000;stroke-width:1.5;"/><rect fill="none" height="307.1328" style="stroke:#000000;stroke-width:1.5;" width="754" x="10" y="372.3594"/><text fill="#000000" font-family="sans-serif" font-size="13" font-weight="bold" lengthAdjust="spacing" textLength="19" x="25" y="385.4263">alt</text><text fill="#000000" font-family="sans-serif" font-size="11" font-weight="bold" lengthAdjust="spacing" textLength="65" x="89" y="384.5698">[&#38656;&#35843;&#29992;&#24037;&#20855;]</text><polygon fill="#181818" points="319,406.625,309,410.625,319,414.625,315,410.625" style="stroke:#181818;stroke-width:1.0;"/><line style="stroke:#181818;stroke-width:1.0;" x1="313" x2="523" y1="410.625" y2="410.625"/><text fill="#000000" font-family="sans-serif" font-size="13" lengthAdjust="spacing" textLength="192" x="325" y="405.5591">&#36820;&#22238;&#35843;&#29992;&#25351;&#20196;&#65288;&#24037;&#20855; ID + &#21442;&#25968;&#65289;</text><polygon fill="#181818" points="668,435.7578,678,439.7578,668,443.7578,672,439.7578" style="stroke:#181818;stroke-width:1.0;"/><line style="stroke:#181818;stroke-width:1.0;" x1="308" x2="674" y1="439.7578" y2="439.7578"/><text fill="#000000" font-family="sans-serif" font-size="13" lengthAdjust="spacing" textLength="156" x="315" y="434.6919">&#35843;&#29992;&#23545;&#24212;&#24037;&#20855;&#65288;&#20256;&#20837;&#21442;&#25968;&#65289;</text><polygon fill="#181818" points="319,464.8906,309,468.8906,319,472.8906,315,468.8906" style="stroke:#181818;stroke-width:1.0;"/><line style="stroke:#181818;stroke-width:1.0;stroke-dasharray:2.0,2.0;" x1="313" x2="679" y1="468.8906" y2="468.8906"/><text fill="#000000" font-family="sans-serif" font-size="13" lengthAdjust="spacing" textLength="78" x="325" y="463.8247">&#36820;&#22238;&#35843;&#29992;&#32467;&#26524;</text><polygon fill="#181818" points="512,494.0234,522,498.0234,512,502.0234,516,498.0234" style="stroke:#181818;stroke-width:1.0;"/><line style="stroke:#181818;stroke-width:1.0;" x1="308" x2="518" y1="498.0234" y2="498.0234"/><text fill="#000000" font-family="sans-serif" font-size="13" lengthAdjust="spacing" textLength="133" x="315" y="492.9575">&#23558;&#32467;&#26524;&#20869;&#23481;&#36716;&#21457;&#32473; LLM</text><line style="stroke:#181818;stroke-width:1.0;" x1="524" x2="566" y1="527.1563" y2="527.1563"/><line style="stroke:#181818;stroke-width:1.0;" x1="566" x2="566" y1="527.1563" y2="540.1563"/><line style="stroke:#181818;stroke-width:1.0;" x1="525" x2="566" y1="540.1563" y2="540.1563"/><polygon fill="#181818" points="535,536.1563,525,540.1563,535,544.1563,531,540.1563" style="stroke:#181818;stroke-width:1.0;"/><text fill="#000000" font-family="sans-serif" font-size="13" lengthAdjust="spacing" textLength="142" x="531" y="522.0903">&#26681;&#25454;&#32467;&#26524;&#36827;&#34892;&#22788;&#29702; / &#24635;&#32467;</text><polygon fill="#181818" points="319,565.2891,309,569.2891,319,573.2891,315,569.2891" style="stroke:#181818;stroke-width:1.0;"/><line style="stroke:#181818;stroke-width:1.0;stroke-dasharray:2.0,2.0;" x1="313" x2="523" y1="569.2891" y2="569.2891"/><text fill="#000000" font-family="sans-serif" font-size="13" lengthAdjust="spacing" textLength="78" x="325" y="564.2231">&#36755;&#20986;&#26368;&#32456;&#22238;&#31572;</text><polygon fill="#181818" points="48,594.4219,38,598.4219,48,602.4219,44,598.4219" style="stroke:#181818;stroke-width:1.0;"/><line style="stroke:#181818;stroke-width:1.0;stroke-dasharray:2.0,2.0;" x1="42" x2="307" y1="598.4219" y2="598.4219"/><text fill="#000000" font-family="sans-serif" font-size="13" lengthAdjust="spacing" textLength="247" x="54" y="593.356">&#26174;&#31034;&#32467;&#26524;&#65288;&#20363;&#22914;&#8220;&#21271;&#20140;&#26126;&#22825;&#27668;&#28201;...&#22825;&#27668;&#26228;&#8221;&#65289;</text><line style="stroke:#000000;stroke-width:1.0;stroke-dasharray:2.0,2.0;" x1="10" x2="764" y1="607.4219" y2="607.4219"/><text fill="#000000" font-family="sans-serif" font-size="11" font-weight="bold" lengthAdjust="spacing" textLength="76" x="15" y="617.6323">[&#26080;&#38656;&#35843;&#29992;&#24037;&#20855;]</text><polygon fill="#181818" points="319,638.3594,309,642.3594,319,646.3594,315,642.3594" style="stroke:#181818;stroke-width:1.0;"/><line style="stroke:#181818;stroke-width:1.0;stroke-dasharray:2.0,2.0;" x1="313" x2="523" y1="642.3594" y2="642.3594"/><text fill="#000000" font-family="sans-serif" font-size="13" lengthAdjust="spacing" textLength="78" x="325" y="637.2935">&#30452;&#25509;&#29983;&#25104;&#22238;&#31572;</text><polygon fill="#181818" points="48,667.4922,38,671.4922,48,675.4922,44,671.4922" style="stroke:#181818;stroke-width:1.0;"/><line style="stroke:#181818;stroke-width:1.0;stroke-dasharray:2.0,2.0;" x1="42" x2="307" y1="671.4922" y2="671.4922"/><text fill="#000000" font-family="sans-serif" font-size="13" lengthAdjust="spacing" textLength="52" x="54" y="666.4263">&#26174;&#31034;&#22238;&#31572;</text></g></svg>